<svg xmlns="http://www.w3.org/2000/svg" width="27" height="27" viewBox="0 0 27 27" fill="none">
<path fill-rule="evenodd" clip-rule="evenodd" d="M13.5 0C20.9558 0 27 6.04416 27 13.5C27 20.9558 20.9558 27 13.5 27C6.04416 27 0 20.9558 0 13.5C0 6.04416 6.04416 0 13.5 0Z" fill="#3F83F8"/>
<path d="M15.2541 26.8872V16.4596H18.1938L18.5835 12.7896H15.2541L15.259 10.9526C15.259 9.99533 15.35 9.48267 16.7249 9.48267H18.5629V5.81201H15.6225C12.0905 5.81201 10.8476 7.59228 10.8476 10.5866V12.7899H8.64587V16.4602H10.8476V26.7394C11.7053 26.9103 12.5921 27.0006 13.5 27.0006C14.0865 27.0006 14.6724 26.9627 15.2541 26.8872Z" fill="#FAFAFA"/>
</svg>