<svg xmlns="http://www.w3.org/2000/svg" width="29" height="29" viewBox="0 0 29 29" fill="none">
<g clip-path="url(#clip0_777_4498)">
<path d="M9.66799 14.5C9.66799 11.8307 11.8313 9.66628 14.5005 9.66628C17.1698 9.66628 19.3343 11.8307 19.3343 14.5C19.3343 17.1693 17.1698 19.3337 14.5005 19.3337C11.8313 19.3337 9.66799 17.1693 9.66799 14.5ZM7.05497 14.5C7.05497 18.6122 10.3883 21.9456 14.5005 21.9456C18.6127 21.9456 21.9461 18.6122 21.9461 14.5C21.9461 10.3878 18.6127 7.05442 14.5005 7.05442C10.3883 7.05442 7.05497 10.3878 7.05497 14.5ZM20.5009 6.7592C20.5007 7.10334 20.6027 7.4398 20.7937 7.72601C20.9848 8.01223 21.2565 8.23536 21.5744 8.36718C21.8923 8.49901 22.2421 8.5336 22.5797 8.4666C22.9172 8.3996 23.2273 8.234 23.4708 7.99076C23.7142 7.74751 23.88 7.43754 23.9473 7.10004C24.0146 6.76254 23.9803 6.41267 23.8487 6.09467C23.7171 5.77668 23.4942 5.50484 23.2082 5.31353C22.9221 5.12222 22.5857 5.02004 22.2416 5.0199H22.2409C21.7796 5.02011 21.3372 5.20341 21.011 5.52953C20.6848 5.85564 20.5013 6.29791 20.5009 6.7592ZM8.64255 26.3027C7.22886 26.2383 6.46047 26.0028 5.94984 25.8039C5.27287 25.5403 4.78984 25.2264 4.28199 24.7193C3.77415 24.2121 3.45979 23.7295 3.19739 23.0526C2.99834 22.5422 2.76286 21.7735 2.69859 20.3599C2.6283 18.8314 2.61426 18.3723 2.61426 14.5001C2.61426 10.6279 2.62946 10.1701 2.69859 8.64038C2.76297 7.22668 3.00019 6.45958 3.19739 5.94767C3.46095 5.27069 3.77484 4.78767 4.28199 4.27982C4.78915 3.77197 5.27171 3.45761 5.94984 3.19522C6.46024 2.99616 7.22886 2.76068 8.64255 2.69642C10.171 2.62612 10.6301 2.61209 14.5005 2.61209C18.371 2.61209 18.8306 2.62728 20.3603 2.69642C21.774 2.7608 22.5411 2.99802 23.053 3.19522C23.73 3.45761 24.213 3.77267 24.7208 4.27982C25.2287 4.78697 25.5419 5.27069 25.8054 5.94767C26.0045 6.45807 26.24 7.22668 26.3042 8.64038C26.3745 10.1701 26.3886 10.6279 26.3886 14.5001C26.3886 18.3723 26.3745 18.8302 26.3042 20.3599C26.2399 21.7735 26.0032 22.5419 25.8054 23.0526C25.5419 23.7295 25.228 24.2126 24.7208 24.7193C24.2137 25.2259 23.73 25.5403 23.053 25.8039C22.5426 26.0029 21.774 26.2384 20.3603 26.3027C18.8319 26.3729 18.3727 26.387 14.5005 26.387C10.6284 26.387 10.1705 26.3729 8.64255 26.3027ZM8.52249 0.087812C6.97888 0.158108 5.92409 0.402868 5.00293 0.761308C4.04895 1.13146 3.24136 1.62806 2.43435 2.4338C1.62733 3.23953 1.13201 4.0484 0.761857 5.00238C0.403417 5.92412 0.158657 6.97833 0.0883613 8.52194C0.0169053 10.068 0.000549316 10.5623 0.000549316 14.5C0.000549316 18.4377 0.0169053 18.932 0.0883613 20.4781C0.158657 22.0218 0.403417 23.0759 0.761857 23.9976C1.13201 24.951 1.62745 25.7608 2.43435 26.5662C3.24124 27.3716 4.04895 27.8675 5.00293 28.2387C5.92583 28.5971 6.97888 28.8419 8.52249 28.9122C10.0693 28.9825 10.5628 29 14.5005 29C18.4383 29 18.9326 28.9836 20.4786 28.9122C22.0223 28.8419 23.0764 28.5971 23.9982 28.2387C24.9516 27.8675 25.7597 27.3719 26.5668 26.5662C27.3738 25.7605 27.868 24.951 28.2392 23.9976C28.5977 23.0759 28.8436 22.0217 28.9127 20.4781C28.983 18.9309 28.9994 18.4377 28.9994 14.5C28.9994 10.5623 28.983 10.068 28.9127 8.52194C28.8424 6.97821 28.5977 5.92354 28.2392 5.00238C27.868 4.04898 27.3725 3.24081 26.5668 2.4338C25.761 1.62678 24.9516 1.13146 23.9993 0.761308C23.0764 0.402868 22.0222 0.156948 20.4798 0.087812C18.9337 0.017516 18.4394 0 14.5017 0C10.564 0 10.0693 0.016356 8.52249 0.087812Z" fill="#3F83F8"/>
<path d="M9.66799 14.5C9.66799 11.8307 11.8313 9.66628 14.5005 9.66628C17.1698 9.66628 19.3343 11.8307 19.3343 14.5C19.3343 17.1693 17.1698 19.3337 14.5005 19.3337C11.8313 19.3337 9.66799 17.1693 9.66799 14.5ZM7.05497 14.5C7.05497 18.6122 10.3883 21.9456 14.5005 21.9456C18.6127 21.9456 21.9461 18.6122 21.9461 14.5C21.9461 10.3878 18.6127 7.05442 14.5005 7.05442C10.3883 7.05442 7.05497 10.3878 7.05497 14.5ZM20.5009 6.7592C20.5007 7.10334 20.6027 7.4398 20.7937 7.72601C20.9848 8.01223 21.2565 8.23536 21.5744 8.36718C21.8923 8.49901 22.2421 8.5336 22.5797 8.4666C22.9172 8.3996 23.2273 8.234 23.4708 7.99076C23.7142 7.74751 23.88 7.43754 23.9473 7.10004C24.0146 6.76254 23.9803 6.41267 23.8487 6.09467C23.7171 5.77668 23.4942 5.50484 23.2082 5.31353C22.9221 5.12222 22.5857 5.02004 22.2416 5.0199H22.2409C21.7796 5.02011 21.3372 5.20341 21.011 5.52953C20.6848 5.85564 20.5013 6.29791 20.5009 6.7592ZM8.64255 26.3027C7.22886 26.2383 6.46047 26.0028 5.94984 25.8039C5.27287 25.5403 4.78984 25.2264 4.28199 24.7193C3.77415 24.2121 3.45979 23.7295 3.19739 23.0526C2.99834 22.5422 2.76286 21.7735 2.69859 20.3599C2.6283 18.8314 2.61426 18.3723 2.61426 14.5001C2.61426 10.6279 2.62946 10.1701 2.69859 8.64038C2.76297 7.22668 3.00019 6.45958 3.19739 5.94767C3.46095 5.27069 3.77484 4.78767 4.28199 4.27982C4.78915 3.77197 5.27171 3.45761 5.94984 3.19522C6.46024 2.99616 7.22886 2.76068 8.64255 2.69642C10.171 2.62612 10.6301 2.61209 14.5005 2.61209C18.371 2.61209 18.8306 2.62728 20.3603 2.69642C21.774 2.7608 22.5411 2.99802 23.053 3.19522C23.73 3.45761 24.213 3.77267 24.7208 4.27982C25.2287 4.78697 25.5419 5.27069 25.8054 5.94767C26.0045 6.45807 26.24 7.22668 26.3042 8.64038C26.3745 10.1701 26.3886 10.6279 26.3886 14.5001C26.3886 18.3723 26.3745 18.8302 26.3042 20.3599C26.2399 21.7735 26.0032 22.5419 25.8054 23.0526C25.5419 23.7295 25.228 24.2126 24.7208 24.7193C24.2137 25.2259 23.73 25.5403 23.053 25.8039C22.5426 26.0029 21.774 26.2384 20.3603 26.3027C18.8319 26.3729 18.3727 26.387 14.5005 26.387C10.6284 26.387 10.1705 26.3729 8.64255 26.3027ZM8.52249 0.087812C6.97888 0.158108 5.92409 0.402868 5.00293 0.761308C4.04895 1.13146 3.24136 1.62806 2.43435 2.4338C1.62733 3.23953 1.13201 4.0484 0.761857 5.00238C0.403417 5.92412 0.158657 6.97833 0.0883613 8.52194C0.0169053 10.068 0.000549316 10.5623 0.000549316 14.5C0.000549316 18.4377 0.0169053 18.932 0.0883613 20.4781C0.158657 22.0218 0.403417 23.0759 0.761857 23.9976C1.13201 24.951 1.62745 25.7608 2.43435 26.5662C3.24124 27.3716 4.04895 27.8675 5.00293 28.2387C5.92583 28.5971 6.97888 28.8419 8.52249 28.9122C10.0693 28.9825 10.5628 29 14.5005 29C18.4383 29 18.9326 28.9836 20.4786 28.9122C22.0223 28.8419 23.0764 28.5971 23.9982 28.2387C24.9516 27.8675 25.7597 27.3719 26.5668 26.5662C27.3738 25.7605 27.868 24.951 28.2392 23.9976C28.5977 23.0759 28.8436 22.0217 28.9127 20.4781C28.983 18.9309 28.9994 18.4377 28.9994 14.5C28.9994 10.5623 28.983 10.068 28.9127 8.52194C28.8424 6.97821 28.5977 5.92354 28.2392 5.00238C27.868 4.04898 27.3725 3.24081 26.5668 2.4338C25.761 1.62678 24.9516 1.13146 23.9993 0.761308C23.0764 0.402868 22.0222 0.156948 20.4798 0.087812C18.9337 0.017516 18.4394 0 14.5017 0C10.564 0 10.0693 0.016356 8.52249 0.087812Z" fill="#3F83F8"/>
</g>
<defs>
<clipPath id="clip0_777_4498">
<rect width="29" height="29" fill="white"/>
</clipPath>
</defs>
</svg>